<svg viewBox="0 0 835.995 835.995"
     style="clip-rule:evenodd;fill-rule:evenodd;image-rendering:optimizeQuality;shape-rendering:geometricPrecision;text-rendering:geometricPrecision"
     xmlns="http://www.w3.org/2000/svg" class="hidden dark:block h-12 cursor-pointer">
    <path style="opacity:0.991" fill="#f6e245"
          d="M756.5 111.5c-.244 2.763-1.577 4.929-4 6.5a13646.808 13646.808 0 0 0-128 103.5h-17a477.48 477.48 0 0 1 17.5-20 16159.931 16159.931 0 0 0 105.5-110c1.574-1.13 3.241-1.298 5-.5a601.567 601.567 0 0 0 21 20.5z"
          transform="translate(-324.5 -90.505)"></path>
    <path style="opacity:0.996" fill="#428eda"
          d="M824.5 117.5c.528 1.347.695 2.681.5 4a47135.52 47135.52 0 0 1-177.5 100c-4.202.317-8.202-.017-12-1a13532.726 13532.726 0 0 1 132-93.5c1.323-.816 1.989-1.983 2-3.5a842.378 842.378 0 0 1 39.5-27 202.003 202.003 0 0 1 6 6 233.334 233.334 0 0 0 9.5 15z"
          transform="translate(-324.5 -90.505)"></path>
    <path style="opacity:1" fill="#a39731"
          d="m756.5 111.5 13 12c-.011 1.517-.677 2.684-2 3.5a13532.726 13532.726 0 0 0-132 93.5h-1c-3.228.914-6.561 1.247-10 1a13646.808 13646.808 0 0 1 128-103.5c2.423-1.571 3.756-3.737 4-6.5z"
          transform="translate(-324.5 -90.505)"></path>
    <path style="opacity:1" fill="#94d405"
          d="M895.5 150.5a9219.713 9219.713 0 0 1-201 62.5c-3.764.852-7.097 2.352-10 4.5a367.77 367.77 0 0 1-14 4c-4.863.319-9.53-.014-14-1a22078.047 22078.047 0 0 1 178-84.5c1.256-.417 1.923-1.25 2-2.5a1077.45 1077.45 0 0 0 40.5-19 3.943 3.943 0 0 1 2 1 417.142 417.142 0 0 1 16.5 35z"
          transform="translate(-324.5 -90.505)"></path>
    <path style="opacity:1" fill="#2b5f92"
          d="m824.5 117.5 12 16c-.077 1.25-.744 2.083-2 2.5a22078.047 22078.047 0 0 0-178 84.5h-1c-2.554.888-5.221 1.221-8 1a47135.52 47135.52 0 0 0 177.5-100c.195-1.319.028-2.653-.5-4z"
          transform="translate(-324.5 -90.505)"></path>
    <path style="opacity:0.998" fill="#6a9401"
          d="M895.5 150.5a70.009 70.009 0 0 0 7 13c-.111.617-.444 1.117-1 1.5a20251.51 20251.51 0 0 1-217 52.5c2.903-2.148 6.236-3.648 10-4.5a9219.713 9219.713 0 0 0 201-62.5z"
          transform="translate(-324.5 -90.505)"></path>
    <path style="opacity:1" fill="#fd4f57"
          d="M969.5 209.5a21771.748 21771.748 0 0 0-232 12h-67a367.77 367.77 0 0 0 14-4 20251.51 20251.51 0 0 0 217-52.5c.556-.383.889-.883 1-1.5a576.766 576.766 0 0 1 53-11.5c.829 1.816 1.663 3.649 2.5 5.5 3.858 17.421 7.691 34.754 11.5 52z"
          transform="translate(-324.5 -90.505)"></path>
    <path style="opacity:1" fill="#b2363d"
          d="M969.5 209.5c1.781 3.7 2.781 7.7 3 12h-235a21771.748 21771.748 0 0 1 232-12z"
          transform="translate(-324.5 -90.505)"></path>
    <path style="opacity:0.986" fill="#3c3b3b"
          d="M634.5 220.5h1c3.798.983 7.798 1.317 12 1 2.779.221 5.446-.112 8-1 2.071 1.309 4.571 1.975 7.5 2 2.69-.003 5.19-.336 7.5-1h362v154c-.99 8.484-1.33 17.151-1 26v27a34.29 34.29 0 0 0 1 11c-.99 6.145-1.32 12.478-1 19v55c-.33 76.404 0 152.738 1 229v70h-200a53.805 53.805 0 0 0-14 1c-6.145-.99-12.478-1.323-19-1h-12a300.7 300.7 0 0 0-49 0h-297v-184c.994-9.486 1.327-19.152 1-29 .166-9.006 0-18.006-.5-27-1.039-.744-1.539-1.744-1.5-3 .617.111 1.117.444 1.5 1 .5-11.995.667-23.995.5-36 .333-85.835-.001-171.502-1-257v-56h167c4.153.666 8.487.999 13 1 4.722-.008 9.055-.675 13-2z"
          transform="translate(-324.5 -90.505)"></path>
    <path style="opacity:0.999" fill="#716c3e"
          d="M634.5 220.5c-3.945 1.325-8.278 1.992-13 2-4.513-.001-8.847-.334-13-1h16c3.439.247 6.772-.086 10-1z"
          transform="translate(-324.5 -90.505)"></path>
    <path style="opacity:1" fill="#576c2c"
          d="M655.5 220.5h1c4.47.986 9.137 1.319 14 1-2.31.664-4.81.997-7.5 1-2.929-.025-5.429-.691-7.5-2z"
          transform="translate(-324.5 -90.505)"></path>
    <path style="opacity:1" fill="#444"
          d="M455.5 237.5h562c.17 186.334 0 372.667-.5 559-93.43.666-186.93.999-280.5 1-93.57-.001-187.07-.334-280.5-1-.5-186.333-.667-372.666-.5-559z"
          transform="translate(-324.5 -90.505)"></path>
    <path style="opacity:1" fill="#8c383d"
          d="M441.5 277.5c.999 85.498 1.333 171.165 1 257-1.174-1.014-1.84-2.347-2-4 .994-10.487 1.328-21.154 1-32v-221z"
          transform="translate(-324.5 -90.505)"></path>
    <path style="opacity:1" fill="#b0363c" d="M441.5 277.5v221a7370.273 7370.273 0 0 1-12-219 188.78 188.78 0 0 1 12-2z"
          transform="translate(-324.5 -90.505)"></path>
    <path style="opacity:1" fill="#fd4e57"
          d="M429.5 279.5a7370.273 7370.273 0 0 0 12 219c.328 10.846-.006 21.513-1 32a37998.332 37998.332 0 0 0-41-169c-.223-3.662-1.223-6.995-3-10 .106-2.579-.561-4.912-2-7a1976.064 1976.064 0 0 0-7.5-26 474.608 474.608 0 0 0-5-27 562.442 562.442 0 0 1 47.5-12z"
          transform="translate(-324.5 -90.505)"></path>
    <path style="opacity:1" fill="#fefefe"
          d="M926.5 326.5a101.15 101.15 0 0 1-.5 22 55229.998 55229.998 0 0 0-65.5 328h-3a13119.954 13119.954 0 0 1-144-58.5c-4.508-1.951-9.174-2.618-14-2a6.978 6.978 0 0 0-2.5 3.5 1848.326 1848.326 0 0 0 0 86c.804 2.646 2.304 4.646 4.5 6-5.23 1.426-9.73.093-13.5-4-.667-32-.667-64 0-96a15150.256 15150.256 0 0 0 95.5-114 3575.987 3575.987 0 0 1 46-54.5 2799.329 2799.329 0 0 0-53 41.5 1033.784 1033.784 0 0 0-34 24.5 8688.269 8688.269 0 0 0-99 77 10.258 10.258 0 0 1-4 1.5 2778.922 2778.922 0 0 1-87-35.5c-5.553-3.919-7.553-9.085-6-15.5a14.698 14.698 0 0 1 3-3.5 98101.306 98101.306 0 0 0 365-209c3-.667 6-.667 9 0 1.442.377 2.442 1.21 3 2.5z"
          transform="translate(-324.5 -90.505)"></path>
    <path style="opacity:1" fill="#dbdbdb"
          d="M926.5 326.5c4.293 1.974 5.96 5.307 5 10a32400.99 32400.99 0 0 0-56 333c-1.261 2.758-2.094 5.758-2.5 9-5.641 2.932-10.807 2.266-15.5-2h3a55229.998 55229.998 0 0 1 65.5-328 101.15 101.15 0 0 0 .5-22z"
          transform="translate(-324.5 -90.505)"></path>
    <path style="opacity:1" fill="#2f2f2f"
          d="M861.5 683.5c10.246 1.088 14.912-3.579 14-14a32400.99 32400.99 0 0 1 56-333c2.041-2.435 4.374-2.602 7-.5 3.052 2.199 5.052 5.032 6 8.5a41137.19 41137.19 0 0 1-58.5 342c-4.025 2.893-8.525 3.726-13.5 2.5-3.996-1.331-7.663-3.165-11-5.5z"
          transform="translate(-324.5 -90.505)"></path>
    <path style="opacity:0.997" fill="#6b9203"
          d="M394.5 344.5c1.439 2.088 2.106 4.421 2 7 .223 3.662 1.223 6.995 3 10a37998.332 37998.332 0 0 1 41 169c.16 1.653.826 2.986 2 4 .167 12.005 0 24.005-.5 36-.383-.556-.883-.889-1.5-1v-1c1.158-9.157 1.324-18.491.5-28a37178.669 37178.669 0 0 1-59.5-189 77.725 77.725 0 0 1 13-7z"
          transform="translate(-324.5 -90.505)"></path>
    <path style="opacity:1" fill="#95d402"
          d="M381.5 351.5a37178.669 37178.669 0 0 0 59.5 189c.824 9.509.658 18.843-.5 28a16812.323 16812.323 0 0 0-75-157c-.457-.798-1.124-1.131-2-1a1011.378 1011.378 0 0 0-19-40.5c.259-1.261.926-2.261 2-3a462.899 462.899 0 0 1 35-15.5z"
          transform="translate(-324.5 -90.505)"></path>
    <path style="opacity:1" fill="#a77626" d="M396.5 351.5c1.777 3.005 2.777 6.338 3 10-1.777-3.005-2.777-6.338-3-10z"
          transform="translate(-324.5 -90.505)"></path>
    <path style="opacity:0.971" fill="#010101"
          d="M1493.5 373.5c-29.66 83.315-59.33 166.649-89 250 .03 1.529.7 2.696 2 3.5 11.75 7.242 24.41 10.742 38 10.5a56.412 56.412 0 0 1-4 9.5c-17.63 3.041-34.63 1.041-51-6-2.69-1.698-5.02-3.698-7-6a5754.39 5754.39 0 0 0 42-118.5c.67 0 1-.333 1-1 3.34-4.175 6.5-8.508 9.5-13 8.1-16.716 12.6-34.383 13.5-53 8.24-22.197 16.4-44.53 24.5-67 6.01-4.837 12.84-7.837 20.5-9z"
          transform="translate(-324.5 -90.505)"></path>
    <path style="opacity:0.991" fill="#f6e245"
          d="M1032.5 375.5c42.1 40.495 84.44 80.829 127 121 1.13 1.574 1.3 3.241.5 5a1187.678 1187.678 0 0 0-25.5 26c-34.33-42-68.67-84-103-126-.33-8.849.01-17.516 1-26z"
          transform="translate(-324.5 -90.505)"></path>
    <path style="opacity:0.985"
          d="M2262.5 379.5a22336.544 22336.544 0 0 0-16 252h36c-.44 3.654-.78 7.321-1 11h-57c.57-5.984.91-11.984 1-18a221.66 221.66 0 0 0 7-12.5 67.107 67.107 0 0 1-5-9.5c2.49-41.012 5.16-82.012 8-123a279.727 279.727 0 0 0 4-60c.94-11.65 1.78-23.317 2.5-35a61.64 61.64 0 0 1 20.5-5z"
          transform="translate(-324.5 -90.505)"></path>
    <path style="opacity:0.965" fill="#020202"
          d="M2428.5 381.5c-22.16 45.645-44.32 91.311-66.5 137a97.474 97.474 0 0 1-5.5-21l54-112c5.65-2.612 11.65-3.946 18-4z"
          transform="translate(-324.5 -90.505)"></path>
    <path style="opacity:0.976"
          d="M1262.5 383.5c-1.55 2.329-2.38 4.996-2.5 8a41659.244 41659.244 0 0 1-21.5 229c.03 1.529.7 2.696 2 3.5 10.46 7.365 22.12 10.532 35 9.5.42 2.579-.25 4.746-2 6.5-15.71 5.881-31.38 5.881-47 0-2.67-1.667-5.33-3.333-8-5a8766.435 8766.435 0 0 1 21.5-239.5c5.83-3.833 11.67-7.667 17.5-11.5 1.63-.494 3.3-.66 5-.5z"
          transform="translate(-324.5 -90.505)"></path>
    <path style="opacity:0.988"
          d="M1848.5 383.5c-5.31 78.826-10.64 157.659-16 236.5.13 4.943 2.46 8.276 7 10 50 .5 100 .667 150 .5a35.34 35.34 0 0 1-5 10l-83.5 1c-28.58.159-57.08-.341-85.5-1.5-2.97-2.265-4.3-5.265-4-9 3.29-46.484 6.29-92.984 9-139.5 7.01-26.054 8.68-52.387 5-79 .72-6.535 1.56-13.202 2.5-20a23.169 23.169 0 0 1 5.5-8.5c4.99-.499 9.99-.666 15-.5z"
          transform="translate(-324.5 -90.505)"></path>
    <path style="opacity:0.977"
          d="M1641.5 384.5c-1.55 2.329-2.38 4.996-2.5 8a41659.244 41659.244 0 0 1-21.5 229c.03 1.529.7 2.696 2 3.5 10.46 7.365 22.12 10.532 35 9.5.77 4.251-.9 6.751-5 7.5-18.42 6.272-35.75 4.272-52-6-1.29-2.832-1.29-5.665 0-8.5 5.8-1.894 11.47-4.394 17-7.5.58-.893.91-1.893 1-3a1414.688 1414.688 0 0 1-13-50.5c5.35-56.66 10.85-113.326 16.5-170 5.83-3.833 11.67-7.667 17.5-11.5 1.63-.494 3.3-.66 5-.5z"
          transform="translate(-324.5 -90.505)"></path>
    <path style="opacity:0.98"
          d="M2053.5 384.5c-1.61 2.689-2.44 5.689-2.5 9-7 76.187-14.17 152.353-21.5 228.5.77 2.069 2.1 3.735 4 5 10.06 6.43 21.06 8.93 33 7.5.16 2.027 0 4.027-.5 6-16.45 6.392-32.95 6.559-49.5.5l-7.5-5.5c-.17-3.993 0-7.993.5-12 4.91-13.277 6.24-26.944 4-41a8749.302 8749.302 0 0 1 18-186c6.82-5.075 14.15-9.075 22-12z"
          transform="translate(-324.5 -90.505)"></path>
    <path style="opacity:0.976" fill="#010101"
          d="M2538.5 387.5c-16.49 13.926-28.32 31.259-35.5 52-10.23 31.21-14.23 63.21-12 96 2.07 29.927 13.57 55.427 34.5 76.5 36.1 27.584 74.77 31.75 116 12.5-.01 1.517-.68 2.684-2 3.5a227.524 227.524 0 0 1-58 19c-63.22.922-100.22-29.578-111-91.5 1.13-28.37 2.79-56.704 5-85 4.87-21.098 13.7-40.431 26.5-58 10.1-11.248 22.26-19.581 36.5-25z"
          transform="translate(-324.5 -90.505)"></path>
    <path style="opacity:1" fill="#a39730"
          d="M1031.5 401.5c34.33 42 68.67 84 103 126-3.69 4.026-7.36 8.026-11 12-2.91-1.739-5.41-4.072-7.5-7a5119.404 5119.404 0 0 0-84.5-119v-12z"
          transform="translate(-324.5 -90.505)"></path>
    <path style="opacity:1" fill="#2d5f8f"
          d="M363.5 410.5c.876-.131 1.543.202 2 1a16812.323 16812.323 0 0 1 75 157v1c-.039 1.256.461 2.256 1.5 3 .5 8.994.666 17.994.5 27-1.406-.473-2.073-1.473-2-3 .664-2.646.998-5.479 1-8.5a31.73 31.73 0 0 0-1.5-10.5 11678.211 11678.211 0 0 1-87-156c-.671-.752-1.504-1.086-2.5-1a141.893 141.893 0 0 1 13-10z"
          transform="translate(-324.5 -90.505)"></path>
    <path style="opacity:0.996" fill="#428dda"
          d="M1031.5 413.5a5119.404 5119.404 0 0 1 84.5 119c2.09 2.928 4.59 5.261 7.5 7a228.017 228.017 0 0 0 23.5 33c1.18 2.37 2.35 4.703 3.5 7-.03 1.529-.7 2.696-2 3.5a314.002 314.002 0 0 0-20 13.5c-1.52-.011-2.68-.677-3.5-2a6664.019 6664.019 0 0 0-93.5-166v-15z"
          transform="translate(-324.5 -90.505)"></path>
    <path style="opacity:0.996" fill="#408ddb"
          d="M350.5 420.5c.996-.086 1.829.248 2.5 1a11678.211 11678.211 0 0 0 87 156 31.73 31.73 0 0 1 1.5 10.5c-.002 3.021-.336 5.854-1 8.5a4931.605 4931.605 0 0 1-78.5-111c-1.129-1.641-2.629-2.641-4.5-3a2051.092 2051.092 0 0 1-31-44.5c.259-1.261.926-2.261 2-3a538.866 538.866 0 0 0 22-14.5z"
          transform="translate(-324.5 -90.505)"></path>
    <path style="opacity:0.976" fill="#020202"
          d="M1362.5 492.5c7.74-12.17 10.57-25.503 8.5-40-2.07-10.735-8.57-16.568-19.5-17.5a250.085 250.085 0 0 0-36-1.5c-.44-3.307.23-6.307 2-9a297.044 297.044 0 0 1 50-1.5c7.59.53 14.43 3.03 20.5 7.5 3.58 5.996 5.42 12.496 5.5 19.5-.59 10.851-3.42 21.018-8.5 30.5-6.43 5.964-13.93 9.964-22.5 12zM1741.5 493.5c7.74-12.17 10.57-25.503 8.5-40-2.07-10.735-8.57-16.568-19.5-17.5a250.085 250.085 0 0 0-36-1.5c-.44-3.307.23-6.307 2-9a297.044 297.044 0 0 1 50-1.5c7.59.53 14.43 3.03 20.5 7.5 3.58 5.996 5.42 12.496 5.5 19.5-.59 10.851-3.42 21.018-8.5 30.5-6.43 5.964-13.93 9.964-22.5 12z"
          transform="translate(-324.5 -90.505)"></path>
    <path style="opacity:0.969" d="M2000.5 423.5a47.023 47.023 0 0 1-4 10.5c-31 .5-62 .667-93 .5v-11h97z"
          transform="translate(-324.5 -90.505)"></path>
    <path style="opacity:0.976" fill="#020202"
          d="M2156.5 486.5c4.11-7.268 6.11-15.101 6-23.5 1.48-11.976-3.19-20.309-14-25-13.84-3.38-27.84-4.213-42-2.5a44.69 44.69 0 0 1 1-10 306.708 306.708 0 0 1 46-1.5c10.22-.373 19.06 2.794 26.5 9.5 6.35 14.823 5.35 29.156-3 43-5.84 5.336-12.67 8.669-20.5 10z"
          transform="translate(-324.5 -90.505)"></path>
    <path style="opacity:0.96" fill="#010101"
          d="M2653.5 442.5c-3.19 5.668-7.36 10.668-12.5 15-21-11.965-43.5-16.965-67.5-15 6.26-5.633 13.6-9.467 22-11.5 19.01-1.333 37.35 1.667 55 9 1.44.377 2.44 1.21 3 2.5z"
          transform="translate(-324.5 -90.505)"></path>
    <path style="opacity:0.999" fill="#2b5e91"
          d="M1031.5 428.5a6664.019 6664.019 0 0 1 93.5 166c.82 1.323 1.98 1.989 3.5 2a62.446 62.446 0 0 1-15 10c-1.25-.077-2.08-.744-2.5-2a57900.6 57900.6 0 0 0-78.5-165 34.29 34.29 0 0 1-1-11z"
          transform="translate(-324.5 -90.505)"></path>
    <path style="opacity:0.999" fill="#94d405"
          d="M1032.5 439.5a57900.6 57900.6 0 0 1 78.5 165c.42 1.256 1.25 1.923 2.5 2a3821.454 3821.454 0 0 0 19 41.5c-.26 1.261-.93 2.261-2 3a61.023 61.023 0 0 0-10 5 82.82 82.82 0 0 0-19 9c-1.63.494-3.3.66-5 .5a16037.855 16037.855 0 0 0-65-207c-.32-6.522.01-12.855 1-19z"
          transform="translate(-324.5 -90.505)"></path>
    <path style="opacity:1" fill="#2f2f2f"
          d="M783.5 497.5a4808.633 4808.633 0 0 0-126 95.5c-4.774 2.28-8.774 1.446-12-2.5l131-106a2799.329 2799.329 0 0 1 53-41.5 3575.987 3575.987 0 0 0-46 54.5z"
          transform="translate(-324.5 -90.505)"></path>
    <path style="opacity:0.988" fill="#020202"
          d="M1508.5 534.5a889.597 889.597 0 0 0-6-34 543.874 543.874 0 0 1 14.5-47c4.75 25.183 9.59 50.35 14.5 75.5-.25 1.326-.92 2.326-2 3-7.02.753-14.02 1.586-21 2.5z"
          transform="translate(-324.5 -90.505)"></path>
    <path style="opacity:0.998" fill="#6a9301"
          d="M1031.5 458.5a16037.855 16037.855 0 0 1 65 207 186.975 186.975 0 0 1-13 8 627.099 627.099 0 0 1-11-41c.09-2.652-.58-4.985-2-7a6831.81 6831.81 0 0 0-39-158v-9z"
          transform="translate(-324.5 -90.505)"></path>
    <path style="opacity:1" fill="#fc4f56"
          d="M1031.5 467.5a6831.81 6831.81 0 0 1 39 158c-.09 2.652.58 4.985 2 7a627.099 627.099 0 0 0 11 41 5831.98 5831.98 0 0 0 13 51.5c-1.22 1.74-2.88 2.74-5 3a1254.52 1254.52 0 0 1-48 11.5 9088.45 9088.45 0 0 0-12-226v-46z"
          transform="translate(-324.5 -90.505)"></path>
    <path style="opacity:1" fill="#a19632"
          d="M357.5 482.5c1.871.359 3.371 1.359 4.5 3a4931.605 4931.605 0 0 0 78.5 111c-.073 1.527.594 2.527 2 3 .327 9.848-.006 19.514-1 29 .166-6.675 0-13.342-.5-20a15763.525 15763.525 0 0 0-93.5-115 39.312 39.312 0 0 1 10-11z"
          transform="translate(-324.5 -90.505)"></path>
    <path style="opacity:0.991" fill="#f5e245"
          d="M347.5 493.5a15763.525 15763.525 0 0 1 93.5 115c.5 6.658.666 13.325.5 20v1a8911.516 8911.516 0 0 1-81-76.5c-1.537-1.11-2.203-2.61-2-4.5a4.934 4.934 0 0 1-3-.5 1328.364 1328.364 0 0 0-31-30.5 217.664 217.664 0 0 1 18.5-21 30.786 30.786 0 0 0 4.5-3z"
          transform="translate(-324.5 -90.505)"></path>
    <path style="opacity:0.981"
          d="M2409.5 621.5c-.98 3.125-1.31 6.458-1 10h37c-.22 3.679-.56 7.346-1 11h-57c1.37-25.331 2.71-50.664 4-76a1954.56 1954.56 0 0 1 23.5-56c-1.78 36.982-3.61 73.982-5.5 111z"
          transform="translate(-324.5 -90.505)"></path>
    <path style="opacity:0.982" fill="#020202"
          d="M2346.5 630.5c-2.12 10.353-8.45 14.186-19 11.5-3.77-1.302-6.94-3.469-9.5-6.5a1361.277 1361.277 0 0 0-12.5-50c1.68-24.731 3.85-49.397 6.5-74a13245.15 13245.15 0 0 1 27 111c2.03 3.192 4.53 5.859 7.5 8z"
          transform="translate(-324.5 -90.505)"></path>
    <path style="opacity:0.991" d="M1976.5 517.5a50.222 50.222 0 0 1-5 10.5c-25 .5-50 .667-75 .5v-11h80z"
          transform="translate(-324.5 -90.505)"></path>
    <path style="opacity:0.772" fill="#0a0a0a"
          d="M2187.5 527.5a72.954 72.954 0 0 1-12 8c-1.42-.25-2.42-1.083-3-2.5 4.92-1.983 9.92-3.816 15-5.5z"
          transform="translate(-324.5 -90.505)"></path>
    <path style="opacity:1" fill="#a7a7a7"
          d="m776.5 484.5-131 106c-2.767 2.418-5.767 2.584-9 .5a1846.647 1846.647 0 0 0-89-37c-4.581-3.438-6.081-7.938-4.5-13.5.66-1.824 1.827-3.157 3.5-4-1.553 6.415.447 11.581 6 15.5a2778.922 2778.922 0 0 0 87 35.5 10.258 10.258 0 0 0 4-1.5 8688.269 8688.269 0 0 1 99-77 1033.784 1033.784 0 0 1 34-24.5z"
          transform="translate(-324.5 -90.505)"></path>
    <path style="opacity:0.916" fill="#060606"
          d="M1393.5 534.5c-8.33 6.328-17.66 10.828-28 13.5-20.68 4.838-41.35 9.672-62 14.5-.61-2.804-.61-5.804 0-9a727.224 727.224 0 0 0 90-19zM1772.5 535.5c-8.33 6.328-17.66 10.828-28 13.5-20.68 4.838-41.35 9.672-62 14.5-.61-2.804-.61-5.804 0-9a727.224 727.224 0 0 0 90-19z"
          transform="translate(-324.5 -90.505)"></path>
    <path style="opacity:1" fill="#af363c"
          d="M1031.5 513.5a9088.45 9088.45 0 0 1 12 226 33.085 33.085 0 0 0-11 3c-1-76.262-1.33-152.596-1-229z"
          transform="translate(-324.5 -90.505)"></path>
    <path style="opacity:0.973" fill="#010101"
          d="M2202.5 636.5c-7.68 7.915-17.18 11.915-28.5 12a99.291 99.291 0 0 1-19.5-3.5c-19.9-28.987-39.9-57.82-60-86.5v-11c6.2-.337 12.36-1.003 18.5-2 1.11.085 2.11.419 3 1a4163.187 4163.187 0 0 0 60.5 87.5 83.505 83.505 0 0 0 26 2.5z"
          transform="translate(-324.5 -90.505)"></path>
    <path style="opacity:0.971" fill="#010101"
          d="M1595.5 628.5c.09.996-.25 1.829-1 2.5a70.412 70.412 0 0 1-25 9c-11.71.832-23.37.499-35-1-1.91-1.701-3.08-3.867-3.5-6.5a1725.361 1725.361 0 0 0-10.5-39l-3-1c-14.3 2.033-28.63 3.7-43 5l3-8a523.443 523.443 0 0 1 64-7.5c4.33 15 8.67 30 13 45a71.528 71.528 0 0 0 21.5 2.5c6.51-.187 13.01-.52 19.5-1z"
          transform="translate(-324.5 -90.505)"></path>
    <path style="opacity:1" fill="#aaa"
          d="M857.5 676.5c4.693 4.266 9.859 4.932 15.5 2 .406-3.242 1.239-6.242 2.5-9 .912 10.421-3.754 15.088-14 14a5886.431 5886.431 0 0 1-81-33c-2.756-1.704-5.756-3.037-9-4a938.372 938.372 0 0 0-64-27l-1 1a133.99 133.99 0 0 1 13.5 33 1460.16 1460.16 0 0 0 5.5 27c-2.743 3.925-4.743 8.258-6 13-4.943 5.774-10.443 11.108-16.5 16a2.428 2.428 0 0 0-.5 2h-1c-2.196-1.354-3.696-3.354-4.5-6a1848.326 1848.326 0 0 1 0-86 6.978 6.978 0 0 1 2.5-3.5c4.826-.618 9.492.049 14 2a13119.954 13119.954 0 0 0 144 58.5z"
          transform="translate(-324.5 -90.505)"></path>
    <path style="opacity:1" fill="#959595"
          d="M771.5 646.5c-2.283.108-4.283.941-6 2.5a2868.928 2868.928 0 0 0-46 44.5c1.257-4.742 3.257-9.075 6-13a1460.16 1460.16 0 0 1-5.5-27 133.99 133.99 0 0 0-13.5-33l1-1a938.372 938.372 0 0 1 64 27z"
          transform="translate(-324.5 -90.505)"></path>
    <path style="opacity:1" fill="#b6b6b6" d="M2409.5 621.5v9c12.18-.328 24.18.005 36 1h-37c-.31-3.542.02-6.875 1-10z"
          transform="translate(-324.5 -90.505)"></path>
    <path style="opacity:1" fill="#bb6d31" d="M1070.5 625.5c1.42 2.015 2.09 4.348 2 7-1.42-2.015-2.09-4.348-2-7z"
          transform="translate(-324.5 -90.505)"></path>
    <path style="opacity:1" fill="#2e2e2e"
          d="M771.5 646.5c3.244.963 6.244 2.296 9 4a5263.02 5263.02 0 0 0-64 59.5c-4.241 4.094-8.907 4.594-14 1.5a2.428 2.428 0 0 1 .5-2c6.057-4.892 11.557-10.226 16.5-16a2868.928 2868.928 0 0 1 46-44.5c1.717-1.559 3.717-2.392 6-2.5z"
          transform="translate(-324.5 -90.505)"></path>
    <path style="opacity:1" fill="#4c5930"
          d="M738.5 812.5a300.7 300.7 0 0 1 49 0c0 .667-.333 1-1 1-11.154-.995-22.488-1.328-34-1h-14z"
          transform="translate(-324.5 -90.505)"></path>
    <path style="opacity:1" fill="#b0363c"
          d="M508.5 812.5h229c-1.714 1.238-3.714 1.905-6 2-2.646-.664-5.479-.998-8.5-1-70.516 3.683-141.016 7.35-211.5 11-.997-3.979-1.997-7.979-3-12z"
          transform="translate(-324.5 -90.505)"></path>
    <path style="opacity:0.997" fill="#6b9202"
          d="M737.5 812.5h15a6371.868 6371.868 0 0 1-171 54 141.305 141.305 0 0 1-6-12c1.348-1.98 3.348-3.147 6-3.5a12661.26 12661.26 0 0 0 150-36.5c2.286-.095 4.286-.762 6-2z"
          transform="translate(-324.5 -90.505)"></path>
    <path style="opacity:0.999" fill="#95d401"
          d="M752.5 812.5c11.512-.328 22.846.005 34 1a373642.413 373642.413 0 0 0-143 67.5 14.698 14.698 0 0 0-3 3.5 594.693 594.693 0 0 0-40.5 19l-3-3a809.646 809.646 0 0 1-15.5-34 6371.868 6371.868 0 0 0 171-54z"
          transform="translate(-324.5 -90.505)"></path>
    <path style="opacity:0.999" fill="#2d5f8e"
          d="M787.5 812.5h12a15853.002 15853.002 0 0 1-149 84 85.582 85.582 0 0 0-10-12 14.698 14.698 0 0 1 3-3.5c47.884-22.615 95.551-45.115 143-67.5.667 0 1-.333 1-1z"
          transform="translate(-324.5 -90.505)"></path>
    <path style="opacity:0.997" fill="#408dda"
          d="M799.5 812.5c6.522-.323 12.855.01 19 1a296314.41 296314.41 0 0 1-103 72.5c-1.537 1.11-2.203 2.61-2 4.5a1051.036 1051.036 0 0 0-45 31 179.313 179.313 0 0 1-18-25 15853.002 15853.002 0 0 0 149-84z"
          transform="translate(-324.5 -90.505)"></path>
    <path style="opacity:1" fill="#a19632"
          d="M832.5 812.5a201609.339 201609.339 0 0 1-108 87 106.628 106.628 0 0 1-11-9c-.203-1.89.463-3.39 2-4.5a296314.41 296314.41 0 0 0 103-72.5 53.805 53.805 0 0 1 14-1z"
          transform="translate(-324.5 -90.505)"></path>
    <path style="opacity:0.992" fill="#f5e245"
          d="M832.5 812.5h29a5731 5731 0 0 1-108.5 114 218.01 218.01 0 0 1-28.5-27c36.039-29.011 72.039-58.011 108-87z"
          transform="translate(-324.5 -90.505)"></path>
    <path style="opacity:1" fill="#fc4e56"
          d="M731.5 814.5a12661.26 12661.26 0 0 1-150 36.5c-2.652.353-4.652 1.52-6 3.5a3508.532 3508.532 0 0 1-52 12c-1.147-.318-1.981-.984-2.5-2a2834.361 2834.361 0 0 0-9.5-40c70.484-3.65 140.984-7.317 211.5-11 3.021.002 5.854.336 8.5 1z"
          transform="translate(-324.5 -90.505)"></path>
</svg>